<svg xmlns="http://www.w3.org/2000/svg" viewBox="0 0 32 32">
  <defs>
    <linearGradient id="navy" x1="0%" y1="0%" x2="100%" y2="100%">
      <stop offset="0%" style="stop-color:#1B365D"/>
      <stop offset="100%" style="stop-color:#15304F"/>
    </linearGradient>
  </defs>
  <!-- Shield outline -->
  <path d="M3 3h26v17c0 6-13 10-13 10S3 26 3 20V3z" fill="url(#navy)" stroke="white" stroke-width="1.2"/>
  <!-- Inner shield border -->
  <path d="M5 5h22v14.5c0 5-11 8.5-11 8.5S5 24.5 5 19.5V5z" fill="none" stroke="#C5A55A" stroke-width="0.8"/>
  <!-- Quadrant dividers -->
  <line x1="16" y1="5" x2="16" y2="22" stroke="#C5A55A" stroke-width="0.6" opacity="0.7"/>
  <line x1="5" y1="13.5" x2="27" y2="13.5" stroke="#C5A55A" stroke-width="0.6" opacity="0.7"/>
  <!-- Q1: Brain (gold bg) -->
  <rect x="5" y="5" width="11" height="8.5" fill="#C5A55A" opacity="0.3"/>
  <circle cx="10.5" cy="9.5" r="2.8" fill="none" stroke="white" stroke-width="0.7"/>
  <path d="M9 9.5c0.5-1 2.5-1 3 0" fill="none" stroke="white" stroke-width="0.5"/>
  <!-- Q2: Graduation cap (navy bg) -->
  <rect x="16" y="5" width="11" height="8.5" fill="#1B365D" opacity="0.3"/>
  <path d="M19.5 9l3-1.5 3 1.5-3 1.5z" fill="#C5A55A"/>
  <line x1="22.5" y1="9" x2="22.5" y2="11.5" stroke="#C5A55A" stroke-width="0.5"/>
  <!-- Q3: F letter (navy bg) -->
  <rect x="5" y="13.5" width="11" height="8.5" fill="#1B365D" opacity="0.3"/>
  <text x="10.5" y="21.5" font-family="Georgia,serif" font-weight="bold" font-size="8" fill="white" text-anchor="middle">F</text>
  <!-- Q4: AI + shield (gold bg) -->
  <rect x="16" y="13.5" width="11" height="8.5" fill="#C5A55A" opacity="0.3"/>
  <path d="M20.5 17h4v3.5c0 1.5-2 2.5-2 2.5s-2-1-2-2.5V17z" fill="none" stroke="white" stroke-width="0.6"/>
  <text x="22.5" y="21" font-family="Georgia,serif" font-weight="bold" font-size="4" fill="#1B365D" text-anchor="middle">AI</text>
  <!-- Laurel hints -->
  <ellipse cx="2" cy="16" rx="1" ry="4" fill="#C5A55A" opacity="0.5"/>
  <ellipse cx="30" cy="16" rx="1" ry="4" fill="#C5A55A" opacity="0.5"/>
</svg>
